<?xml version="1.0" encoding="utf-8"?>
<!-- Generator: Adobe Illustrator 24.2.3, SVG Export Plug-In . SVG Version: 6.00 Build 0)  -->
<svg version="1.1" id="Capa_1" xmlns="http://www.w3.org/2000/svg" xmlns:xlink="http://www.w3.org/1999/xlink" x="0px" y="0px"
	 viewBox="0 0 476 194" style="enable-background:new 0 0 476 194;" xml:space="preserve">
<style type="text/css">
	.st0{fill:url(#SVGID_1_);}
	.st1{fill:url(#SVGID_2_);}
	.st2{fill:url(#SVGID_3_);}
	.st3{fill:url(#SVGID_4_);}
	.st4{fill:url(#SVGID_5_);}
	.st5{fill:url(#SVGID_6_);}
</style>
<g>
	<path d="M436.63,145.98v-7.74c-3.74,2.97-8.06,5.42-12.97,7.36c-4.9,1.93-10.52,2.9-16.84,2.9c-7.1,0-13.64-1.33-19.64-3.97
		c-6-2.65-11.19-6.29-15.58-10.93c-4.39-4.65-7.81-10.06-10.25-16.26c-2.46-6.19-3.68-12.84-3.68-19.93
		c0-6.97,1.22-13.55,3.68-19.74c2.45-6.19,5.87-11.61,10.25-16.26c4.39-4.64,9.58-8.29,15.58-10.93c6-2.64,12.54-3.97,19.64-3.97
		c7.87,0,14.77,1.48,20.71,4.45l-8.32,20.71c-3.1-1.29-6.58-1.93-10.45-1.93c-3.74,0-7.32,0.68-10.74,2.03
		c-3.42,1.35-6.42,3.39-9,6.1c-5.42,5.42-8.13,11.93-8.13,19.55c0,7.74,2.71,14.32,8.13,19.74c2.58,2.58,5.58,4.58,9,6
		c3.42,1.42,7,2.13,10.74,2.13c7.74,0,14.32-2.71,19.74-8.13c5.42-5.42,8.13-12,8.13-19.74V49.02h23.22v96.96H436.63z"/>
	<g>
		<path d="M204.79,118.14c-0.42,0.49-0.85,0.97-1.32,1.44c-4.39,4.39-9.74,6.58-16.06,6.58c-6.19,0-11.29-2.19-15.67-6.58
			c-4.52-4.51-6.58-9.8-6.58-15.87V49.79h-24v53.92c0,6.32,1.19,12.26,3.19,17.8c2,5.55,4.94,10.39,8.61,14.52
			c3.68,4.13,8.14,7.39,13.3,9.77c5.16,2.39,10.92,3.58,17.25,3.58c3.38,0,6.58-0.37,9.56-1.09L204.79,118.14z"/>
		<rect x="210.15" y="49.79" width="23" height="100"/>
	</g>
	<path d="M282.48,49.12v88.83c0,6.19-1.19,12.13-3.58,17.8c-2.39,5.68-5.77,10.71-10.16,15.09c-4.39,4.52-9.42,7.94-15.09,10.26
		c-5.68,2.32-11.61,3.48-17.81,3.48v-23.22c3.22,0,6.26-0.61,9.1-1.84c2.83-1.23,5.32-2.9,7.45-5.03c2.13-2.13,3.81-4.61,5.03-7.45
		c1.22-2.84,1.84-5.87,1.84-9.09V49.12H282.48z M282.29,33.64h-23.22V10.41h23.22V33.64z"/>
	<path d="M122.91,87.63c-3.1-5.68-7.03-10.32-12.18-13.93c2.32-3.22,4.1-6.8,5.45-10.74c1.35-3.93,1.97-8.09,1.97-12.48v-0.39
		c0-5.42-0.87-10.51-2.93-15.29c-2.07-4.77-4.79-8.97-8.34-12.58c-3.55-3.61-7.7-6.36-12.54-8.42c-4.84-2.06-9.92-3-15.34-3H17.15
		v55.94v23.22v55.84h23.44l0,0h9.57h-0.19h38.51c5.42,0,10.51-0.89,15.29-2.96c4.77-2.06,8.96-4.8,12.58-8.35
		c3.61-3.55,6.05-7.71,8.11-12.54c2.06-4.84,2.69-9.93,2.69-15.35v-0.39C127.15,99.5,126,93.31,122.91,87.63z M40.15,33.79H79
		c4.51,0,8.3,1.6,11.46,4.76c3.16,3.16,4.69,7.02,4.69,11.53v0.39c0,4.52-1.53,8.39-4.69,11.55c-3.17,3.16-6.95,4.77-11.46,4.77
		H40.15V33.79z M104.15,106.6c0,4.52-1.29,8.33-4.45,11.49c-3.16,3.16-6.71,4.71-11.22,4.71H69.59l0,0H40.15v-33H79h9.48
		c4.51,0,8.06,1.66,11.22,4.82c3.16,3.16,4.45,7.08,4.45,11.59V106.6z"/>
	<g>
		<linearGradient id="SVGID_1_" gradientUnits="userSpaceOnUse" x1="309.8975" y1="22.2192" x2="333.122" y2="22.2192">
			<stop  offset="0" style="stop-color:#FF3132"/>
			<stop  offset="1" style="stop-color:#FF4621"/>
		</linearGradient>
		<rect x="309.9" y="10.61" class="st0" width="23.22" height="23.22"/>
		<g>
			<linearGradient id="SVGID_2_" gradientUnits="userSpaceOnUse" x1="306.4073" y1="125.5576" x2="336.0732" y2="125.5576">
				<stop  offset="0" style="stop-color:#FF3132"/>
				<stop  offset="1" style="stop-color:#FF4621"/>
			</linearGradient>
			<path class="st1" d="M306.41,129.99l0.01-8.89l29.66,0.03l-0.01,8.89L306.41,129.99z"/>
			<linearGradient id="SVGID_3_" gradientUnits="userSpaceOnUse" x1="302.7237" y1="110.7422" x2="339.7862" y2="110.7422">
				<stop  offset="0" style="stop-color:#FF3132"/>
				<stop  offset="1" style="stop-color:#FF4621"/>
			</linearGradient>
			<path class="st2" d="M302.72,115.07l0.01-8.69l37.05,0.03l0,8.69L302.72,115.07z"/>
			<linearGradient id="SVGID_4_" gradientUnits="userSpaceOnUse" x1="297.5146" y1="95.0318" x2="345.0273" y2="95.0318">
				<stop  offset="0" style="stop-color:#FF3132"/>
				<stop  offset="1" style="stop-color:#FF4621"/>
			</linearGradient>
			<path class="st3" d="M297.51,100.35l0.01-10.68l47.51,0.04l-0.01,10.68L297.51,100.35z"/>
			<linearGradient id="SVGID_5_" gradientUnits="userSpaceOnUse" x1="303.2304" y1="66.4239" x2="339.3477" y2="66.4239">
				<stop  offset="0" style="stop-color:#FF3132"/>
				<stop  offset="1" style="stop-color:#FF4621"/>
			</linearGradient>
			<path class="st4" d="M306.25,49.17l-3.02,34.47l36.12,0.03l-2.96-34.48L306.25,49.17z"/>
			<linearGradient id="SVGID_6_" gradientUnits="userSpaceOnUse" x1="306.4034" y1="147.6031" x2="336.0713" y2="147.6031">
				<stop  offset="0" style="stop-color:#FF3132"/>
				<stop  offset="1" style="stop-color:#FF4621"/>
			</linearGradient>
			<path class="st5" d="M306.41,136.01l-0.01,9.34l11.82,0.01v3.91h6.02l0-3.9l5.79,0.01l0,3.9c0,2.15-1.75,3.9-3.9,3.9l-7.92-0.01
				l0,6.02l7.92,0.01c2.73,0,5.22-1.11,7.02-2.9c1.79-1.8,2.91-4.28,2.91-7.01l0.01-3.9l0.01-9.34L306.41,136.01z"/>
		</g>
	</g>
</g>
</svg>
